<svg width="269" height="198" viewBox="0 0 269 198" fill="none" xmlns="http://www.w3.org/2000/svg">
<path d="M127.13 103H179.87C180.53 103 181.1 103.24 181.58 103.72C182.06 104.2 182.3 104.77 182.3 105.43V119.92C182.3 120.58 182.06 121.15 181.58 121.63C181.1 122.11 180.53 122.35 179.87 122.35H164.93V163.57C164.93 164.23 164.69 164.8 164.21 165.28C163.73 165.76 163.16 166 162.5 166H144.5C143.84 166 143.27 165.76 142.79 165.28C142.31 164.8 142.07 164.23 142.07 163.57V122.35H127.13C126.47 122.35 125.9 122.11 125.42 121.63C124.94 121.15 124.7 120.58 124.7 119.92V105.43C124.7 104.77 124.94 104.2 125.42 103.72C125.9 103.24 126.47 103 127.13 103ZM217.958 166H205.088C203.948 166 202.988 165.67 202.208 165.01C201.488 164.29 201.068 163.48 200.948 162.58L192.668 105.25V104.98C192.668 104.44 192.848 103.99 193.208 103.63C193.628 103.21 194.108 103 194.648 103H211.388C213.368 103 214.448 103.81 214.628 105.43L217.688 130.81L221.378 119.56C221.978 117.82 222.998 116.95 224.438 116.95H233.618C235.058 116.95 236.078 117.82 236.678 119.56L240.368 130.72L243.428 105.43C243.608 103.81 244.688 103 246.668 103H263.408C263.948 103 264.398 103.21 264.758 103.63C265.178 103.99 265.388 104.44 265.388 104.98V105.25L257.108 162.58C256.988 163.48 256.538 164.29 255.758 165.01C255.038 165.67 254.108 166 252.968 166H240.098C238.238 166 237.008 165.19 236.408 163.57L229.028 145.12L221.648 163.57C221.048 165.19 219.818 166 217.958 166Z" fill="url(#paint0_linear_4_19)"/>
<path d="M150.44 84H137.57C136.43 84 135.47 83.67 134.69 83.01C133.97 82.29 133.55 81.48 133.43 80.58L125.15 23.25V22.98C125.15 22.44 125.33 21.99 125.69 21.63C126.11 21.21 126.59 21 127.13 21H143.87C145.85 21 146.93 21.81 147.11 23.43L150.17 48.81L153.86 37.56C154.46 35.82 155.48 34.95 156.92 34.95H166.1C167.54 34.95 168.56 35.82 169.16 37.56L172.85 48.72L175.91 23.43C176.09 21.81 177.17 21 179.15 21H195.89C196.43 21 196.88 21.21 197.24 21.63C197.66 21.99 197.87 22.44 197.87 22.98V23.25L189.59 80.58C189.47 81.48 189.02 82.29 188.24 83.01C187.52 83.67 186.59 84 185.45 84H172.58C170.72 84 169.49 83.19 168.89 81.57L161.51 63.12L154.13 81.57C153.53 83.19 152.3 84 150.44 84ZM210.644 21H263.384C264.044 21 264.614 21.24 265.094 21.72C265.574 22.2 265.814 22.77 265.814 23.43V37.92C265.814 38.58 265.574 39.15 265.094 39.63C264.614 40.11 264.044 40.35 263.384 40.35H248.444V81.57C248.444 82.23 248.204 82.8 247.724 83.28C247.244 83.76 246.674 84 246.014 84H228.014C227.354 84 226.784 83.76 226.304 83.28C225.824 82.8 225.584 82.23 225.584 81.57V40.35H210.644C209.984 40.35 209.414 40.11 208.934 39.63C208.454 39.15 208.214 38.58 208.214 37.92V23.43C208.214 22.77 208.454 22.2 208.934 21.72C209.414 21.24 209.984 21 210.644 21Z" fill="url(#paint1_linear_4_19)"/>
<path d="M76.9085 21.0003L71.7101 33.9676C73.8505 34.8192 75.9153 35.8204 77.8923 36.9609L80.5082 32.8891L85.2651 36.0118L82.6441 40.0904C82.902 40.283 83.1575 40.4787 83.4118 40.6763L77.4198 47.6503C78.9354 48.7997 80.3653 50.0583 81.6987 51.4135L87.6934 44.4361C87.7502 44.4926 87.8088 44.5484 87.8655 44.6049L91.4449 41.3478L95.2395 45.6085L91.6616 48.8644C93.0909 50.6703 94.3943 52.5813 95.5599 54.5847L99.8431 52.3792L102.417 57.4875L98.1406 59.6891C99.0556 61.7986 99.8264 63.9857 100.44 66.2391L105.129 65.2321L106.308 70.8395L101.621 71.8462C101.959 74.1082 102.14 76.4224 102.158 78.7758L106.946 79.0294L106.649 84.7547L101.872 84.5016C101.619 86.836 101.2 89.12 100.631 91.3431L105.167 92.833L103.414 98.2852L98.8853 96.7974C98.0456 98.9723 97.0554 101.072 95.9265 103.082L99.9147 105.7L96.8254 110.508L92.8409 107.892C91.4774 109.766 89.9828 111.536 88.3723 113.191L91.5466 116.754L87.3314 120.591L84.1641 117.034C82.3736 118.486 80.48 119.814 78.4923 120.999L80.6318 125.243L75.579 127.846L73.4447 123.612C71.3514 124.543 69.1795 125.325 66.9423 125.949L67.9174 130.588L62.37 131.78L61.3958 127.146C59.1487 127.491 56.8505 127.678 54.5126 127.697L54.2674 132.424L48.6041 132.123L48.849 127.409C46.529 127.153 44.2584 126.732 42.0498 126.154L40.6119 130.626L35.2184 128.854L36.6538 124.391C34.4919 123.538 32.4062 122.531 30.41 121.384L27.8827 125.317L23.1267 122.194L25.6546 118.261C25.3724 118.05 25.0938 117.836 24.8164 117.62L30.8397 110.61C29.3232 109.462 27.893 108.204 26.5584 106.85L20.5351 113.86C20.4878 113.814 20.4398 113.768 20.3925 113.721L16.9463 116.857L13.1518 112.597L16.5952 109.463C15.2105 107.714 13.9438 105.866 12.8049 103.932L1 111.205C3.8875 116.081 7.41288 120.526 11.4611 124.423L5.21729 131.69L9.49983 135.449L15.7437 128.181C26.2922 136.623 39.6266 141.666 54.1269 141.666C54.5411 141.666 54.9541 141.659 55.3662 141.65V147.624C45.0077 152.334 37.4267 158.876 31.1638 166H91.1108C85.1404 158.54 77.5048 152.505 66.5955 147.683V140.396C94.79 134.567 116 109.358 116 79.1439C116 61.3234 108.621 45.2447 96.7835 33.8563L103.029 26.5869L98.747 22.8282L92.5004 30.0983C87.8075 26.3436 82.5618 23.2644 76.9094 21L76.9085 21.0003ZM54.1157 46.3576C36.171 46.3576 21.6938 60.9872 21.6938 79.1187C21.6938 97.2508 36.171 111.88 54.1157 111.88C72.0603 111.88 86.5375 97.2508 86.5375 79.1187C86.5375 76.2429 86.1725 73.4555 85.4875 70.7996C82.3788 78.4951 78.4835 84.6494 71.5569 91.3366C66.4322 90.8805 62.5402 88.8581 59.223 85.212C61.0584 82.4942 63.1954 79.9298 67.4458 78.4322C63.633 69.7563 61.9257 61.0799 60.9537 52.4043C64.7361 53.8123 67.0716 56.0639 69.8256 60.059C72.1659 60.5796 74.9429 57.9559 76.8873 55.7721C71.0382 49.9469 63.003 46.3576 54.1157 46.3576ZM44.259 66.3057C49.6061 70.1585 54.0935 75.9641 55.7999 82.4154C52.442 85.2547 50.6692 88.8952 49.7548 92.9695C54.9007 95.494 58.8734 99.5024 62.3942 104.08V104.082C51.9434 103.038 41.6841 101.28 32.4432 95.7496C28.7494 89.3618 26.6448 82.9734 26.3981 76.5856C31.4357 74.2773 36.4733 75.0714 41.5108 76.8601C44.3094 73.3417 44.2985 70.4422 44.259 66.3054V66.3057Z" fill="url(#paint2_linear_4_19)" stroke="url(#paint3_linear_4_19)"/>
<path d="M34.424 194H32.422C32.2447 194 32.0953 193.949 31.974 193.846C31.862 193.734 31.7967 193.608 31.778 193.468L30.49 184.55V184.508C30.49 184.424 30.518 184.354 30.574 184.298C30.6393 184.233 30.714 184.2 30.798 184.2H33.402C33.71 184.2 33.878 184.326 33.906 184.578L34.382 188.526L34.956 186.776C35.0493 186.505 35.208 186.37 35.432 186.37H36.86C37.084 186.37 37.2427 186.505 37.336 186.776L37.91 188.512L38.386 184.578C38.414 184.326 38.582 184.2 38.89 184.2H41.494C41.578 184.2 41.648 184.233 41.704 184.298C41.7693 184.354 41.802 184.424 41.802 184.508V184.55L40.514 193.468C40.4953 193.608 40.4253 193.734 40.304 193.846C40.192 193.949 40.0473 194 39.87 194H37.868C37.5787 194 37.3873 193.874 37.294 193.622L36.146 190.752L34.998 193.622C34.9047 193.874 34.7133 194 34.424 194ZM49.655 194H47.149C47.0463 194 46.9577 193.963 46.883 193.888C46.8083 193.813 46.771 193.725 46.771 193.622V187.098C46.771 186.995 46.8083 186.907 46.883 186.832C46.9577 186.757 47.0463 186.72 47.149 186.72H49.655C49.7577 186.72 49.8463 186.757 49.921 186.832C49.9957 186.907 50.033 186.995 50.033 187.098V193.622C50.033 193.725 49.9957 193.813 49.921 193.888C49.8463 193.963 49.7577 194 49.655 194ZM49.963 184.018V185.712C49.963 185.815 49.9257 185.903 49.851 185.978C49.7763 186.053 49.6877 186.09 49.585 186.09H47.219C47.1163 186.09 47.0277 186.053 46.953 185.978C46.8783 185.903 46.841 185.815 46.841 185.712V184.018C46.841 183.915 46.8783 183.827 46.953 183.752C47.0277 183.677 47.1163 183.64 47.219 183.64H49.585C49.6877 183.64 49.7763 183.677 49.851 183.752C49.9257 183.827 49.963 183.915 49.963 184.018ZM63.4591 189.758V193.622C63.4591 193.725 63.4218 193.813 63.3471 193.888C63.2725 193.963 63.1838 194 63.0811 194H60.4071C60.3045 194 60.2158 193.963 60.1411 193.888C60.0665 193.813 60.0291 193.725 60.0291 193.622V189.856C60.0291 189.343 59.7958 189.086 59.3291 189.086C58.8625 189.086 58.6291 189.343 58.6291 189.856V193.622C58.6291 193.725 58.5918 193.813 58.5171 193.888C58.4425 193.963 58.3538 194 58.2511 194H55.5911C55.4885 194 55.3998 193.963 55.3251 193.888C55.2505 193.813 55.2131 193.725 55.2131 193.622V187.098C55.2131 186.995 55.2505 186.907 55.3251 186.832C55.3998 186.757 55.4885 186.72 55.5911 186.72H58.0411C58.1438 186.72 58.2325 186.757 58.3071 186.832C58.3818 186.907 58.4191 186.995 58.4191 187.098V187.56C58.6618 187.271 58.9885 187.037 59.3991 186.86C59.8191 186.673 60.2671 186.58 60.7431 186.58C61.5085 186.58 62.1525 186.851 62.6751 187.392C63.1978 187.924 63.4591 188.713 63.4591 189.758ZM68.3534 190.906V189.8C68.3534 188.755 68.6334 187.957 69.1934 187.406C69.7534 186.855 70.4348 186.58 71.2374 186.58C72.0494 186.58 72.6981 186.799 73.1834 187.238V184.438C73.1834 184.335 73.2208 184.247 73.2954 184.172C73.3701 184.097 73.4588 184.06 73.5614 184.06H76.1514C76.2541 184.06 76.3428 184.097 76.4174 184.172C76.4921 184.247 76.5294 184.335 76.5294 184.438V193.622C76.5294 193.725 76.4921 193.813 76.4174 193.888C76.3428 193.963 76.2541 194 76.1514 194H73.7714C73.6688 194 73.5801 193.963 73.5054 193.888C73.4308 193.813 73.3934 193.725 73.3934 193.622V193.202C72.9081 193.827 72.2221 194.14 71.3354 194.14C70.4488 194.14 69.7301 193.879 69.1794 193.356C68.6288 192.824 68.3534 192.007 68.3534 190.906ZM73.1834 190.822V189.786C73.1554 189.319 72.9221 189.086 72.4834 189.086C72.0168 189.086 71.7834 189.357 71.7834 189.898V190.822C71.7834 191.363 72.0168 191.634 72.4834 191.634C72.9501 191.634 73.1834 191.363 73.1834 190.822ZM81.4987 190.836V189.884C81.4987 188.82 81.8767 188.003 82.6327 187.434C83.3887 186.865 84.364 186.58 85.5587 186.58C86.7533 186.58 87.7287 186.865 88.4847 187.434C89.2407 188.003 89.6187 188.82 89.6187 189.884V190.836C89.6187 191.909 89.2547 192.731 88.5267 193.3C87.7987 193.86 86.8093 194.14 85.5587 194.14C84.308 194.14 83.3187 193.86 82.5907 193.3C81.8627 192.731 81.4987 191.909 81.4987 190.836ZM86.1887 190.948V189.772C86.1887 189.417 86.142 189.17 86.0487 189.03C85.9553 188.89 85.792 188.82 85.5587 188.82C85.3253 188.82 85.162 188.89 85.0687 189.03C84.9753 189.17 84.9287 189.417 84.9287 189.772V190.948C84.9287 191.321 84.9753 191.573 85.0687 191.704C85.162 191.835 85.3253 191.9 85.5587 191.9C85.792 191.9 85.9553 191.83 86.0487 191.69C86.142 191.55 86.1887 191.303 86.1887 190.948ZM99.3821 186.72H100.684C100.936 186.72 101.095 186.832 101.16 187.056L102.07 189.968L102.924 187.056C102.989 186.832 103.148 186.72 103.4 186.72H105.556C105.649 186.72 105.729 186.753 105.794 186.818C105.859 186.883 105.892 186.949 105.892 187.014C105.892 187.079 105.887 187.131 105.878 187.168L103.834 193.65C103.759 193.883 103.605 194 103.372 194H101.496C101.263 194 101.109 193.883 101.034 193.65L100.04 190.822L99.0321 193.65C98.9575 193.883 98.8035 194 98.5701 194H96.6941C96.4608 194 96.3068 193.883 96.2321 193.65L94.1881 187.168C94.1788 187.131 94.1741 187.079 94.1741 187.014C94.1741 186.949 94.2068 186.883 94.2721 186.818C94.3375 186.753 94.4168 186.72 94.5101 186.72H96.6661C96.9181 186.72 97.0768 186.832 97.1421 187.056L97.9961 189.968L98.9061 187.056C98.9715 186.832 99.1301 186.72 99.3821 186.72ZM118.59 184.2H126.794C126.897 184.2 126.985 184.237 127.06 184.312C127.135 184.387 127.172 184.475 127.172 184.578V186.832C127.172 186.935 127.135 187.023 127.06 187.098C126.985 187.173 126.897 187.21 126.794 187.21H124.47V193.622C124.47 193.725 124.433 193.813 124.358 193.888C124.283 193.963 124.195 194 124.092 194H121.292C121.189 194 121.101 193.963 121.026 193.888C120.951 193.813 120.914 193.725 120.914 193.622V187.21H118.59C118.487 187.21 118.399 187.173 118.324 187.098C118.249 187.023 118.212 186.935 118.212 186.832V184.578C118.212 184.475 118.249 184.387 118.324 184.312C118.399 184.237 118.487 184.2 118.59 184.2ZM131.865 190.836V189.884C131.865 188.82 132.243 188.003 132.999 187.434C133.755 186.865 134.73 186.58 135.925 186.58C137.119 186.58 138.095 186.865 138.851 187.434C139.607 188.003 139.985 188.82 139.985 189.884V190.836C139.985 191.909 139.621 192.731 138.893 193.3C138.165 193.86 137.175 194.14 135.925 194.14C134.674 194.14 133.685 193.86 132.957 193.3C132.229 192.731 131.865 191.909 131.865 190.836ZM136.555 190.948V189.772C136.555 189.417 136.508 189.17 136.415 189.03C136.321 188.89 136.158 188.82 135.925 188.82C135.691 188.82 135.528 188.89 135.435 189.03C135.341 189.17 135.295 189.417 135.295 189.772V190.948C135.295 191.321 135.341 191.573 135.435 191.704C135.528 191.835 135.691 191.9 135.925 191.9C136.158 191.9 136.321 191.83 136.415 191.69C136.508 191.55 136.555 191.303 136.555 190.948ZM152.899 184.2H161.103C161.205 184.2 161.294 184.237 161.369 184.312C161.443 184.387 161.481 184.475 161.481 184.578V186.832C161.481 186.935 161.443 187.023 161.369 187.098C161.294 187.173 161.205 187.21 161.103 187.21H158.779V193.622C158.779 193.725 158.741 193.813 158.667 193.888C158.592 193.963 158.503 194 158.401 194H155.601C155.498 194 155.409 193.963 155.335 193.888C155.26 193.813 155.223 193.725 155.223 193.622V187.21H152.899C152.796 187.21 152.707 187.173 152.633 187.098C152.558 187.023 152.521 186.935 152.521 186.832V184.578C152.521 184.475 152.558 184.387 152.633 184.312C152.707 184.237 152.796 184.2 152.899 184.2ZM169.87 189.856V193.622C169.87 193.725 169.832 193.813 169.758 193.888C169.683 193.963 169.594 194 169.492 194H166.762C166.659 194 166.57 193.963 166.496 193.888C166.421 193.813 166.384 193.725 166.384 193.622V184.438C166.384 184.335 166.421 184.247 166.496 184.172C166.57 184.097 166.659 184.06 166.762 184.06H169.492C169.594 184.06 169.683 184.097 169.758 184.172C169.832 184.247 169.87 184.335 169.87 184.438V187.448C170.402 186.869 171.083 186.58 171.914 186.58C172.744 186.58 173.43 186.851 173.972 187.392C174.513 187.933 174.784 188.722 174.784 189.758V193.608C174.784 193.711 174.746 193.799 174.672 193.874C174.597 193.949 174.508 193.986 174.406 193.986H171.662C171.559 193.986 171.47 193.949 171.396 193.874C171.321 193.799 171.284 193.711 171.284 193.608V189.856C171.284 189.343 171.046 189.086 170.57 189.086C170.103 189.086 169.87 189.343 169.87 189.856ZM187.29 191.186H183.118V191.256C183.118 191.825 183.3 192.11 183.664 192.11C183.767 192.11 183.893 192.035 184.042 191.886C184.191 191.737 184.355 191.662 184.532 191.662H187.178C187.383 191.662 187.486 191.765 187.486 191.97C187.486 192.427 187.141 192.903 186.45 193.398C185.769 193.893 184.84 194.14 183.664 194.14C182.497 194.14 181.541 193.837 180.794 193.23C180.057 192.614 179.688 191.769 179.688 190.696V190.024C179.688 189.007 180.066 188.181 180.822 187.546C181.578 186.902 182.567 186.58 183.79 186.58C185.022 186.58 185.974 186.939 186.646 187.658C187.327 188.377 187.668 189.287 187.668 190.388V190.808C187.668 190.911 187.631 190.999 187.556 191.074C187.481 191.149 187.393 191.186 187.29 191.186ZM184.238 189.38C184.238 188.82 184.051 188.54 183.678 188.54C183.305 188.54 183.118 188.82 183.118 189.38V189.436H184.238V189.38ZM204.198 194H202.196C202.018 194 201.869 193.949 201.748 193.846C201.636 193.734 201.57 193.608 201.552 193.468L200.264 184.55V184.508C200.264 184.424 200.292 184.354 200.348 184.298C200.413 184.233 200.488 184.2 200.572 184.2H203.176C203.484 184.2 203.652 184.326 203.68 184.578L204.156 188.526L204.73 186.776C204.823 186.505 204.982 186.37 205.206 186.37H206.634C206.858 186.37 207.016 186.505 207.11 186.776L207.684 188.512L208.16 184.578C208.188 184.326 208.356 184.2 208.664 184.2H211.268C211.352 184.2 211.422 184.233 211.478 184.298C211.543 184.354 211.576 184.424 211.576 184.508V184.55L210.288 193.468C210.269 193.608 210.199 193.734 210.078 193.846C209.966 193.949 209.821 194 209.644 194H207.642C207.352 194 207.161 193.874 207.068 193.622L205.92 190.752L204.772 193.622C204.678 193.874 204.487 194 204.198 194ZM216.335 190.836V189.884C216.335 188.82 216.713 188.003 217.469 187.434C218.225 186.865 219.2 186.58 220.395 186.58C221.589 186.58 222.565 186.865 223.321 187.434C224.077 188.003 224.455 188.82 224.455 189.884V190.836C224.455 191.909 224.091 192.731 223.363 193.3C222.635 193.86 221.645 194.14 220.395 194.14C219.144 194.14 218.155 193.86 217.427 193.3C216.699 192.731 216.335 191.909 216.335 190.836ZM221.025 190.948V189.772C221.025 189.417 220.978 189.17 220.885 189.03C220.791 188.89 220.628 188.82 220.395 188.82C220.161 188.82 219.998 188.89 219.905 189.03C219.811 189.17 219.765 189.417 219.765 189.772V190.948C219.765 191.321 219.811 191.573 219.905 191.704C219.998 191.835 220.161 191.9 220.395 191.9C220.628 191.9 220.791 191.83 220.885 191.69C220.978 191.55 221.025 191.303 221.025 190.948ZM232.496 187.098V187.588C233.149 187.009 233.877 186.72 234.68 186.72H235.352C235.455 186.72 235.543 186.757 235.618 186.832C235.693 186.907 235.73 186.995 235.73 187.098V189.282C235.73 189.385 235.693 189.473 235.618 189.548C235.543 189.623 235.455 189.66 235.352 189.66H233.546C233.294 189.66 233.093 189.721 232.944 189.842C232.804 189.954 232.725 190.108 232.706 190.304V193.622C232.706 193.725 232.669 193.813 232.594 193.888C232.519 193.963 232.431 194 232.328 194H229.668C229.565 194 229.477 193.963 229.402 193.888C229.327 193.813 229.29 193.725 229.29 193.622V187.098C229.29 186.995 229.327 186.907 229.402 186.832C229.477 186.757 229.565 186.72 229.668 186.72H232.118C232.221 186.72 232.309 186.757 232.384 186.832C232.459 186.907 232.496 186.995 232.496 187.098ZM243.518 194H241.012C240.909 194 240.82 193.963 240.746 193.888C240.671 193.813 240.634 193.725 240.634 193.622V184.438C240.634 184.335 240.671 184.247 240.746 184.172C240.82 184.097 240.909 184.06 241.012 184.06H243.518C243.62 184.06 243.709 184.097 243.784 184.172C243.858 184.247 243.896 184.335 243.896 184.438V193.622C243.896 193.725 243.858 193.813 243.784 193.888C243.709 193.963 243.62 194 243.518 194ZM248.866 190.906V189.8C248.866 188.755 249.146 187.957 249.706 187.406C250.266 186.855 250.947 186.58 251.75 186.58C252.562 186.58 253.211 186.799 253.696 187.238V184.438C253.696 184.335 253.733 184.247 253.808 184.172C253.883 184.097 253.971 184.06 254.074 184.06H256.664C256.767 184.06 256.855 184.097 256.93 184.172C257.005 184.247 257.042 184.335 257.042 184.438V193.622C257.042 193.725 257.005 193.813 256.93 193.888C256.855 193.963 256.767 194 256.664 194H254.284C254.181 194 254.093 193.963 254.018 193.888C253.943 193.813 253.906 193.725 253.906 193.622V193.202C253.421 193.827 252.735 194.14 251.848 194.14C250.961 194.14 250.243 193.879 249.692 193.356C249.141 192.824 248.866 192.007 248.866 190.906ZM253.696 190.822V189.786C253.668 189.319 253.435 189.086 252.996 189.086C252.529 189.086 252.296 189.357 252.296 189.898V190.822C252.296 191.363 252.529 191.634 252.996 191.634C253.463 191.634 253.696 191.363 253.696 190.822Z" fill="black"/>
<defs>
<linearGradient id="paint0_linear_4_19" x1="105" y1="139.5" x2="281.535" y2="141.653" gradientUnits="userSpaceOnUse">
<stop stop-color="#F8CE3B"/>
<stop offset="1" stop-color="#F42727"/>
</linearGradient>
<linearGradient id="paint1_linear_4_19" x1="113.5" y1="54" x2="284.5" y2="54" gradientUnits="userSpaceOnUse">
<stop stop-color="#F42727"/>
<stop offset="1" stop-color="#F8CE3B"/>
</linearGradient>
<linearGradient id="paint2_linear_4_19" x1="23.7161" y1="66.4902" x2="109.743" y2="171.579" gradientUnits="userSpaceOnUse">
<stop stop-color="#F22E2E"/>
<stop offset="1" stop-color="#FFD442"/>
</linearGradient>
<linearGradient id="paint3_linear_4_19" x1="58.5" y1="21" x2="58.5" y2="166" gradientUnits="userSpaceOnUse">
<stop stop-color="#DDDDDD"/>
<stop offset="1" stop-color="white" stop-opacity="0"/>
</linearGradient>
</defs>
</svg>
